<svg width="256" height="256" viewBox="0 0 256 256" fill="none" xmlns="http://www.w3.org/2000/svg">
<g filter="url(#filter0_i_2_4)">
<path d="M105.707 10.8386C119.629 -4.83313 138.558 -2.33892 150.671 10.8386L158.058 19.391C160.616 22.1737 164.317 23.6168 168.083 23.2996L181.216 19.391C199.116 15.5537 215.383 28.9081 215.383 49.65V57.4637C215.763 61.7291 219.489 64.6207 223.336 66.4999L235.202 71.4575C252.365 79.8396 256.654 99.7292 244.152 116.422L240.6 121.11C237.414 125.417 238.069 131.07 241.239 135.388L244.791 140.36C257.719 156.272 250.43 178.103 232.168 185.729L221.954 189.995C218.107 191.602 216.6 194.36 215.881 198.467L215.17 211.821C212.684 230.147 196.407 238.426 183.346 236.576L167.79 232.42C164.054 231.891 159.408 233.131 156.922 237.037L151.31 244.71C137.387 260.408 118.596 257.798 109.116 248.617L98.7639 236.079C96.0534 233.454 92.6365 231.213 88.5459 232.757L72.8887 237.037C59.9624 238.869 44.7414 228.931 42.3051 216.105L40.4972 197.543C39.7634 193.68 37.2157 190.405 33.6512 188.744L22.6678 184.97C6.1512 177.273 0.619225 158.639 10.1026 143.08L16.2932 134.519C18.7798 130.44 18.6615 125.285 15.9906 121.324L11.3733 114.788C-1.69669 96.1777 7.33984 75.3753 26.7076 69.1391L30.9792 67.7637C35.6938 66.2457 40.248 62.3303 40.6398 57.3928L41.591 45.4068C43.1349 25.9514 60.8879 14.7877 79.5608 20.4643L85.6036 22.3015C91.4282 24.5746 95.9925 22.6387 99.1712 19.176L105.707 10.8386Z" fill="url(#paint0_linear_2_4)" style=""/>
<path d="M105.707 10.8386C119.629 -4.83313 138.558 -2.33892 150.671 10.8386L158.058 19.391C160.616 22.1737 164.317 23.6168 168.083 23.2996L181.216 19.391C199.116 15.5537 215.383 28.9081 215.383 49.65V57.4637C215.763 61.7291 219.489 64.6207 223.336 66.4999L235.202 71.4575C252.365 79.8396 256.654 99.7292 244.152 116.422L240.6 121.11C237.414 125.417 238.069 131.07 241.239 135.388L244.791 140.36C257.719 156.272 250.43 178.103 232.168 185.729L221.954 189.995C218.107 191.602 216.6 194.36 215.881 198.467L215.17 211.821C212.684 230.147 196.407 238.426 183.346 236.576L167.79 232.42C164.054 231.891 159.408 233.131 156.922 237.037L151.31 244.71C137.387 260.408 118.596 257.798 109.116 248.617L98.7639 236.079C96.0534 233.454 92.6365 231.213 88.5459 232.757L72.8887 237.037C59.9624 238.869 44.7414 228.931 42.3051 216.105L40.4972 197.543C39.7634 193.68 37.2157 190.405 33.6512 188.744L22.6678 184.97C6.1512 177.273 0.619225 158.639 10.1026 143.08L16.2932 134.519C18.7798 130.44 18.6615 125.285 15.9906 121.324L11.3733 114.788C-1.69669 96.1777 7.33984 75.3753 26.7076 69.1391L30.9792 67.7637C35.6938 66.2457 40.248 62.3303 40.6398 57.3928L41.591 45.4068C43.1349 25.9514 60.8879 14.7877 79.5608 20.4643L85.6036 22.3015C91.4282 24.5746 95.9925 22.6387 99.1712 19.176L105.707 10.8386Z" fill="url(#paint1_radial_2_4)" style=""/>
<path d="M105.707 10.8386C119.629 -4.83313 138.558 -2.33892 150.671 10.8386L158.058 19.391C160.616 22.1737 164.317 23.6168 168.083 23.2996L181.216 19.391C199.116 15.5537 215.383 28.9081 215.383 49.65V57.4637C215.763 61.7291 219.489 64.6207 223.336 66.4999L235.202 71.4575C252.365 79.8396 256.654 99.7292 244.152 116.422L240.6 121.11C237.414 125.417 238.069 131.07 241.239 135.388L244.791 140.36C257.719 156.272 250.43 178.103 232.168 185.729L221.954 189.995C218.107 191.602 216.6 194.36 215.881 198.467L215.17 211.821C212.684 230.147 196.407 238.426 183.346 236.576L167.79 232.42C164.054 231.891 159.408 233.131 156.922 237.037L151.31 244.71C137.387 260.408 118.596 257.798 109.116 248.617L98.7639 236.079C96.0534 233.454 92.6365 231.213 88.5459 232.757L72.8887 237.037C59.9624 238.869 44.7414 228.931 42.3051 216.105L40.4972 197.543C39.7634 193.68 37.2157 190.405 33.6512 188.744L22.6678 184.97C6.1512 177.273 0.619225 158.639 10.1026 143.08L16.2932 134.519C18.7798 130.44 18.6615 125.285 15.9906 121.324L11.3733 114.788C-1.69669 96.1777 7.33984 75.3753 26.7076 69.1391L30.9792 67.7637C35.6938 66.2457 40.248 62.3303 40.6398 57.3928L41.591 45.4068C43.1349 25.9514 60.8879 14.7877 79.5608 20.4643L85.6036 22.3015C91.4282 24.5746 95.9925 22.6387 99.1712 19.176L105.707 10.8386Z" fill="url(#paint2_radial_2_4)" style=""/>
<path d="M105.707 10.8386C119.629 -4.83313 138.558 -2.33892 150.671 10.8386L158.058 19.391C160.616 22.1737 164.317 23.6168 168.083 23.2996L181.216 19.391C199.116 15.5537 215.383 28.9081 215.383 49.65V57.4637C215.763 61.7291 219.489 64.6207 223.336 66.4999L235.202 71.4575C252.365 79.8396 256.654 99.7292 244.152 116.422L240.6 121.11C237.414 125.417 238.069 131.07 241.239 135.388L244.791 140.36C257.719 156.272 250.43 178.103 232.168 185.729L221.954 189.995C218.107 191.602 216.6 194.36 215.881 198.467L215.17 211.821C212.684 230.147 196.407 238.426 183.346 236.576L167.79 232.42C164.054 231.891 159.408 233.131 156.922 237.037L151.31 244.71C137.387 260.408 118.596 257.798 109.116 248.617L98.7639 236.079C96.0534 233.454 92.6365 231.213 88.5459 232.757L72.8887 237.037C59.9624 238.869 44.7414 228.931 42.3051 216.105L40.4972 197.543C39.7634 193.68 37.2157 190.405 33.6512 188.744L22.6678 184.97C6.1512 177.273 0.619225 158.639 10.1026 143.08L16.2932 134.519C18.7798 130.44 18.6615 125.285 15.9906 121.324L11.3733 114.788C-1.69669 96.1777 7.33984 75.3753 26.7076 69.1391L30.9792 67.7637C35.6938 66.2457 40.248 62.3303 40.6398 57.3928L41.591 45.4068C43.1349 25.9514 60.8879 14.7877 79.5608 20.4643L85.6036 22.3015C91.4282 24.5746 95.9925 22.6387 99.1712 19.176L105.707 10.8386Z" fill="url(#paint3_radial_2_4)" style=""/>
<path d="M105.707 10.8386C119.629 -4.83313 138.558 -2.33892 150.671 10.8386L158.058 19.391C160.616 22.1737 164.317 23.6168 168.083 23.2996L181.216 19.391C199.116 15.5537 215.383 28.9081 215.383 49.65V57.4637C215.763 61.7291 219.489 64.6207 223.336 66.4999L235.202 71.4575C252.365 79.8396 256.654 99.7292 244.152 116.422L240.6 121.11C237.414 125.417 238.069 131.07 241.239 135.388L244.791 140.36C257.719 156.272 250.43 178.103 232.168 185.729L221.954 189.995C218.107 191.602 216.6 194.36 215.881 198.467L215.17 211.821C212.684 230.147 196.407 238.426 183.346 236.576L167.79 232.42C164.054 231.891 159.408 233.131 156.922 237.037L151.31 244.71C137.387 260.408 118.596 257.798 109.116 248.617L98.7639 236.079C96.0534 233.454 92.6365 231.213 88.5459 232.757L72.8887 237.037C59.9624 238.869 44.7414 228.931 42.3051 216.105L40.4972 197.543C39.7634 193.68 37.2157 190.405 33.6512 188.744L22.6678 184.97C6.1512 177.273 0.619225 158.639 10.1026 143.08L16.2932 134.519C18.7798 130.44 18.6615 125.285 15.9906 121.324L11.3733 114.788C-1.69669 96.1777 7.33984 75.3753 26.7076 69.1391L30.9792 67.7637C35.6938 66.2457 40.248 62.3303 40.6398 57.3928L41.591 45.4068C43.1349 25.9514 60.8879 14.7877 79.5608 20.4643L85.6036 22.3015C91.4282 24.5746 95.9925 22.6387 99.1712 19.176L105.707 10.8386Z" fill="url(#paint4_radial_2_4)" style=""/>
<path d="M105.707 10.8386C119.629 -4.83313 138.558 -2.33892 150.671 10.8386L158.058 19.391C160.616 22.1737 164.317 23.6168 168.083 23.2996L181.216 19.391C199.116 15.5537 215.383 28.9081 215.383 49.65V57.4637C215.763 61.7291 219.489 64.6207 223.336 66.4999L235.202 71.4575C252.365 79.8396 256.654 99.7292 244.152 116.422L240.6 121.11C237.414 125.417 238.069 131.07 241.239 135.388L244.791 140.36C257.719 156.272 250.43 178.103 232.168 185.729L221.954 189.995C218.107 191.602 216.6 194.36 215.881 198.467L215.17 211.821C212.684 230.147 196.407 238.426 183.346 236.576L167.79 232.42C164.054 231.891 159.408 233.131 156.922 237.037L151.31 244.71C137.387 260.408 118.596 257.798 109.116 248.617L98.7639 236.079C96.0534 233.454 92.6365 231.213 88.5459 232.757L72.8887 237.037C59.9624 238.869 44.7414 228.931 42.3051 216.105L40.4972 197.543C39.7634 193.68 37.2157 190.405 33.6512 188.744L22.6678 184.97C6.1512 177.273 0.619225 158.639 10.1026 143.08L16.2932 134.519C18.7798 130.44 18.6615 125.285 15.9906 121.324L11.3733 114.788C-1.69669 96.1777 7.33984 75.3753 26.7076 69.1391L30.9792 67.7637C35.6938 66.2457 40.248 62.3303 40.6398 57.3928L41.591 45.4068C43.1349 25.9514 60.8879 14.7877 79.5608 20.4643L85.6036 22.3015C91.4282 24.5746 95.9925 22.6387 99.1712 19.176L105.707 10.8386Z" fill="url(#paint5_radial_2_4)" style=""/>
<path d="M105.707 10.8386C119.629 -4.83313 138.558 -2.33892 150.671 10.8386L158.058 19.391C160.616 22.1737 164.317 23.6168 168.083 23.2996L181.216 19.391C199.116 15.5537 215.383 28.9081 215.383 49.65V57.4637C215.763 61.7291 219.489 64.6207 223.336 66.4999L235.202 71.4575C252.365 79.8396 256.654 99.7292 244.152 116.422L240.6 121.11C237.414 125.417 238.069 131.07 241.239 135.388L244.791 140.36C257.719 156.272 250.43 178.103 232.168 185.729L221.954 189.995C218.107 191.602 216.6 194.36 215.881 198.467L215.17 211.821C212.684 230.147 196.407 238.426 183.346 236.576L167.79 232.42C164.054 231.891 159.408 233.131 156.922 237.037L151.31 244.71C137.387 260.408 118.596 257.798 109.116 248.617L98.7639 236.079C96.0534 233.454 92.6365 231.213 88.5459 232.757L72.8887 237.037C59.9624 238.869 44.7414 228.931 42.3051 216.105L40.4972 197.543C39.7634 193.68 37.2157 190.405 33.6512 188.744L22.6678 184.97C6.1512 177.273 0.619225 158.639 10.1026 143.08L16.2932 134.519C18.7798 130.44 18.6615 125.285 15.9906 121.324L11.3733 114.788C-1.69669 96.1777 7.33984 75.3753 26.7076 69.1391L30.9792 67.7637C35.6938 66.2457 40.248 62.3303 40.6398 57.3928L41.591 45.4068C43.1349 25.9514 60.8879 14.7877 79.5608 20.4643L85.6036 22.3015C91.4282 24.5746 95.9925 22.6387 99.1712 19.176L105.707 10.8386Z" fill="url(#paint6_radial_2_4)" style=""/>
<path d="M105.707 10.8386C119.629 -4.83313 138.558 -2.33892 150.671 10.8386L158.058 19.391C160.616 22.1737 164.317 23.6168 168.083 23.2996L181.216 19.391C199.116 15.5537 215.383 28.9081 215.383 49.65V57.4637C215.763 61.7291 219.489 64.6207 223.336 66.4999L235.202 71.4575C252.365 79.8396 256.654 99.7292 244.152 116.422L240.6 121.11C237.414 125.417 238.069 131.07 241.239 135.388L244.791 140.36C257.719 156.272 250.43 178.103 232.168 185.729L221.954 189.995C218.107 191.602 216.6 194.36 215.881 198.467L215.17 211.821C212.684 230.147 196.407 238.426 183.346 236.576L167.79 232.42C164.054 231.891 159.408 233.131 156.922 237.037L151.31 244.71C137.387 260.408 118.596 257.798 109.116 248.617L98.7639 236.079C96.0534 233.454 92.6365 231.213 88.5459 232.757L72.8887 237.037C59.9624 238.869 44.7414 228.931 42.3051 216.105L40.4972 197.543C39.7634 193.68 37.2157 190.405 33.6512 188.744L22.6678 184.97C6.1512 177.273 0.619225 158.639 10.1026 143.08L16.2932 134.519C18.7798 130.44 18.6615 125.285 15.9906 121.324L11.3733 114.788C-1.69669 96.1777 7.33984 75.3753 26.7076 69.1391L30.9792 67.7637C35.6938 66.2457 40.248 62.3303 40.6398 57.3928L41.591 45.4068C43.1349 25.9514 60.8879 14.7877 79.5608 20.4643L85.6036 22.3015C91.4282 24.5746 95.9925 22.6387 99.1712 19.176L105.707 10.8386Z" fill="url(#paint7_radial_2_4)" style=""/>
<path d="M105.707 10.8386C119.629 -4.83313 138.558 -2.33892 150.671 10.8386L158.058 19.391C160.616 22.1737 164.317 23.6168 168.083 23.2996L181.216 19.391C199.116 15.5537 215.383 28.9081 215.383 49.65V57.4637C215.763 61.7291 219.489 64.6207 223.336 66.4999L235.202 71.4575C252.365 79.8396 256.654 99.7292 244.152 116.422L240.6 121.11C237.414 125.417 238.069 131.07 241.239 135.388L244.791 140.36C257.719 156.272 250.43 178.103 232.168 185.729L221.954 189.995C218.107 191.602 216.6 194.36 215.881 198.467L215.17 211.821C212.684 230.147 196.407 238.426 183.346 236.576L167.79 232.42C164.054 231.891 159.408 233.131 156.922 237.037L151.31 244.71C137.387 260.408 118.596 257.798 109.116 248.617L98.7639 236.079C96.0534 233.454 92.6365 231.213 88.5459 232.757L72.8887 237.037C59.9624 238.869 44.7414 228.931 42.3051 216.105L40.4972 197.543C39.7634 193.68 37.2157 190.405 33.6512 188.744L22.6678 184.97C6.1512 177.273 0.619225 158.639 10.1026 143.08L16.2932 134.519C18.7798 130.44 18.6615 125.285 15.9906 121.324L11.3733 114.788C-1.69669 96.1777 7.33984 75.3753 26.7076 69.1391L30.9792 67.7637C35.6938 66.2457 40.248 62.3303 40.6398 57.3928L41.591 45.4068C43.1349 25.9514 60.8879 14.7877 79.5608 20.4643L85.6036 22.3015C91.4282 24.5746 95.9925 22.6387 99.1712 19.176L105.707 10.8386Z" fill="url(#paint8_radial_2_4)" style=""/>
<path d="M105.707 10.8386C119.629 -4.83313 138.558 -2.33892 150.671 10.8386L158.058 19.391C160.616 22.1737 164.317 23.6168 168.083 23.2996L181.216 19.391C199.116 15.5537 215.383 28.9081 215.383 49.65V57.4637C215.763 61.7291 219.489 64.6207 223.336 66.4999L235.202 71.4575C252.365 79.8396 256.654 99.7292 244.152 116.422L240.6 121.11C237.414 125.417 238.069 131.07 241.239 135.388L244.791 140.36C257.719 156.272 250.43 178.103 232.168 185.729L221.954 189.995C218.107 191.602 216.6 194.36 215.881 198.467L215.17 211.821C212.684 230.147 196.407 238.426 183.346 236.576L167.79 232.42C164.054 231.891 159.408 233.131 156.922 237.037L151.31 244.71C137.387 260.408 118.596 257.798 109.116 248.617L98.7639 236.079C96.0534 233.454 92.6365 231.213 88.5459 232.757L72.8887 237.037C59.9624 238.869 44.7414 228.931 42.3051 216.105L40.4972 197.543C39.7634 193.68 37.2157 190.405 33.6512 188.744L22.6678 184.97C6.1512 177.273 0.619225 158.639 10.1026 143.08L16.2932 134.519C18.7798 130.44 18.6615 125.285 15.9906 121.324L11.3733 114.788C-1.69669 96.1777 7.33984 75.3753 26.7076 69.1391L30.9792 67.7637C35.6938 66.2457 40.248 62.3303 40.6398 57.3928L41.591 45.4068C43.1349 25.9514 60.8879 14.7877 79.5608 20.4643L85.6036 22.3015C91.4282 24.5746 95.9925 22.6387 99.1712 19.176L105.707 10.8386Z" fill="url(#paint9_radial_2_4)" style=""/>
</g>
<g filter="url(#filter1_d_2_4)">
<path d="M128.291 225.446C182.237 225.446 225.969 181.714 225.969 127.767C225.969 73.8205 182.237 30.0885 128.291 30.0885C74.3437 30.0885 30.6116 73.8205 30.6116 127.767C30.6116 181.714 74.3437 225.446 128.291 225.446Z" fill="url(#paint10_radial_2_4)" style=""/>
</g>
<g opacity="0.44" filter="url(#filter2_f_2_4)">
<path d="M68.1895 160.185C83.0532 160.185 95.1024 148.135 95.1024 133.272C95.1024 118.408 83.0532 106.358 68.1895 106.358C53.3256 106.358 41.2761 118.408 41.2761 133.272C41.2761 148.135 53.3256 160.185 68.1895 160.185Z" fill="url(#paint11_radial_2_4)" style=""/>
</g>
<g opacity="0.44" filter="url(#filter3_f_2_4)">
<path d="M188.391 160.185C203.255 160.185 215.304 148.135 215.304 133.272C215.304 118.408 203.255 106.358 188.391 106.358C173.528 106.358 161.478 118.408 161.478 133.272C161.478 148.135 173.528 160.185 188.391 160.185Z" fill="url(#paint12_radial_2_4)" style=""/>
</g>
<g filter="url(#filter4_f_2_4)">
<path fill-rule="evenodd" clip-rule="evenodd" d="M83.1441 147.008C85.8072 144.345 90.1252 144.345 92.7874 147.008C112.401 166.622 144.18 166.622 163.793 147.008C166.456 144.345 170.774 144.345 173.437 147.008C176.1 149.672 176.1 153.99 173.437 156.653C148.498 181.592 108.084 181.592 83.1441 156.653C80.4809 153.99 80.4809 149.672 83.1441 147.008Z" fill="#D6961E" style="fill:#D6961E;fill:color(display-p3 0.8392 0.5882 0.1176);fill-opacity:1;"/>
</g>
<g filter="url(#filter5_i_2_4)">
<path fill-rule="evenodd" clip-rule="evenodd" d="M85.4615 143.633C88.1246 140.97 92.4426 140.97 95.1057 143.633C114.719 163.247 146.498 163.247 166.111 143.633C168.774 140.97 173.092 140.97 175.755 143.633C178.418 146.297 178.418 150.615 175.755 153.278C150.816 178.217 110.401 178.217 85.4615 153.278C82.7983 150.615 82.7983 146.297 85.4615 143.633Z" fill="url(#paint13_linear_2_4)" style=""/>
<path fill-rule="evenodd" clip-rule="evenodd" d="M85.4615 143.633C88.1246 140.97 92.4426 140.97 95.1057 143.633C114.719 163.247 146.498 163.247 166.111 143.633C168.774 140.97 173.092 140.97 175.755 143.633C178.418 146.297 178.418 150.615 175.755 153.278C150.816 178.217 110.401 178.217 85.4615 153.278C82.7983 150.615 82.7983 146.297 85.4615 143.633Z" fill="url(#paint14_linear_2_4)" style=""/>
</g>
<g filter="url(#filter6_i_2_4)">
<path fill-rule="evenodd" clip-rule="evenodd" d="M83.2834 65.9873C70.8724 65.9873 60.734 76.0544 60.734 88.5364C60.734 91.0468 58.6985 93.0826 56.1878 93.0826C53.677 93.0826 51.6416 91.0468 51.6416 88.5364C51.6416 71.0131 65.8707 56.8949 83.2834 56.8949C85.7938 56.8949 87.8296 58.9303 87.8296 61.4411C87.8296 63.9518 85.7938 65.9873 83.2834 65.9873Z" fill="#43304A" style="fill:#43304A;fill:color(display-p3 0.2627 0.1882 0.2902);fill-opacity:1;"/>
<path fill-rule="evenodd" clip-rule="evenodd" d="M83.2834 65.9873C70.8724 65.9873 60.734 76.0544 60.734 88.5364C60.734 91.0468 58.6985 93.0826 56.1878 93.0826C53.677 93.0826 51.6416 91.0468 51.6416 88.5364C51.6416 71.0131 65.8707 56.8949 83.2834 56.8949C85.7938 56.8949 87.8296 58.9303 87.8296 61.4411C87.8296 63.9518 85.7938 65.9873 83.2834 65.9873Z" fill="url(#paint15_radial_2_4)" style=""/>
</g>
<g filter="url(#filter7_f_2_4)">
<path fill-rule="evenodd" clip-rule="evenodd" d="M171.992 63.5895C171.992 61.1648 173.957 59.1991 176.382 59.1991C193.198 59.1991 206.94 72.8338 206.94 89.7566C206.94 92.1815 204.975 94.1473 202.55 94.1473C200.125 94.1473 198.159 92.1815 198.159 89.7566C198.159 77.7029 188.368 67.98 176.382 67.98C173.957 67.98 171.992 66.0144 171.992 63.5895Z" fill="#C28D03" style="fill:#C28D03;fill:color(display-p3 0.7608 0.5529 0.0118);fill-opacity:1;"/>
</g>
<g filter="url(#filter8_i_2_4)">
<path fill-rule="evenodd" clip-rule="evenodd" d="M173.115 61.4411C173.115 58.9303 175.151 56.8949 177.661 56.8949C195.074 56.8949 209.302 71.0131 209.302 88.5364C209.302 91.0468 207.267 93.0826 204.756 93.0826C202.246 93.0826 200.21 91.0468 200.21 88.5364C200.21 76.0544 190.072 65.9873 177.661 65.9873C175.151 65.9873 173.115 63.9518 173.115 61.4411Z" fill="#43304A" style="fill:#43304A;fill:color(display-p3 0.2627 0.1882 0.2902);fill-opacity:1;"/>
</g>
<g filter="url(#filter9_f_2_4)">
<path fill-rule="evenodd" clip-rule="evenodd" d="M90.4334 99.2664C85.5217 99.2664 81.3738 102.252 79.709 106.495C78.4433 109.721 74.8019 111.31 71.5753 110.044C68.3492 108.778 66.7602 105.136 68.0261 101.91C71.5489 92.9326 80.2855 86.7162 90.4334 86.7162C101.079 86.7162 110.127 93.6264 113.294 103.243C114.379 106.535 112.59 110.082 109.297 111.166C106.006 112.251 102.459 110.461 101.374 107.169C99.8568 102.563 95.5179 99.2664 90.4334 99.2664Z" fill="#C68D0F" style="fill:#C68D0F;fill:color(display-p3 0.7765 0.5529 0.0588);fill-opacity:1;"/>
</g>
<path fill-rule="evenodd" clip-rule="evenodd" d="M91.8178 97.6817C86.4819 97.6817 81.975 100.937 80.166 105.562C78.7907 109.079 74.8337 110.812 71.3291 109.431C67.824 108.051 66.0976 104.081 67.4729 100.564C71.3003 90.7779 80.7923 84 91.8178 84C103.383 84 113.213 91.5331 116.656 102.017C117.834 105.606 115.89 109.473 112.313 110.655C108.737 111.837 104.883 109.887 103.705 106.297C102.056 101.275 97.3419 97.6817 91.8178 97.6817Z" fill="url(#paint16_linear_2_4)" style=""/>
<g filter="url(#filter10_f_2_4)">
<path fill-rule="evenodd" clip-rule="evenodd" d="M169.168 99.2664C164.256 99.2664 160.107 102.252 158.443 106.495C157.177 109.721 153.535 111.31 150.309 110.044C147.083 108.778 145.494 105.136 146.76 101.91C150.283 92.9326 159.019 86.7162 169.168 86.7162C179.812 86.7162 188.861 93.6264 192.028 103.243C193.112 106.535 191.323 110.082 188.031 111.166C184.74 112.251 181.192 110.461 180.108 107.169C178.591 102.563 174.252 99.2664 169.168 99.2664Z" fill="#C68D0F" style="fill:#C68D0F;fill:color(display-p3 0.7765 0.5529 0.0588);fill-opacity:1;"/>
</g>
<g filter="url(#filter11_i_2_4)">
<path fill-rule="evenodd" clip-rule="evenodd" d="M170.024 97.6297C164.687 97.6297 160.179 100.875 158.37 105.486C156.994 108.991 153.036 110.718 149.531 109.343C146.025 107.967 144.297 104.009 145.673 100.503C149.502 90.7477 158.996 83.9912 170.024 83.9912C181.593 83.9912 191.425 91.5006 194.868 101.951C196.047 105.529 194.102 109.383 190.525 110.562C186.948 111.74 183.093 109.796 181.914 106.218C180.265 101.212 175.55 97.6297 170.024 97.6297Z" fill="#422E51" style="fill:#422E51;fill:color(display-p3 0.2588 0.1804 0.3176);fill-opacity:1;"/>
</g>
<g filter="url(#filter12_f_2_4)">
<path d="M90.6011 148.671C103.699 160.933 137.976 178.099 170.303 148.671" stroke="url(#paint17_linear_2_4)" style="" stroke-width="0.6" stroke-linecap="round"/>
<path d="M90.6011 148.671C103.699 160.933 137.976 178.099 170.303 148.671" stroke="url(#paint18_linear_2_4)" style="" stroke-width="0.6" stroke-linecap="round"/>
</g>
<g filter="url(#filter13_f_2_4)">
<path d="M178.354 60.2845C186.404 60.3793 203.643 66.564 205.347 88.2718" stroke="url(#paint19_linear_2_4)" style="" stroke-width="0.4" stroke-linecap="round"/>
<path d="M178.354 60.2845C186.404 60.3793 203.643 66.564 205.347 88.2718" stroke="url(#paint20_linear_2_4)" style="" stroke-width="0.4" stroke-linecap="round"/>
</g>
<g filter="url(#filter14_f_2_4)">
<path d="M56.6016 87.8454C56.9331 81.5471 60.6079 69.4906 72.087 64.2625" stroke="url(#paint21_linear_2_4)" style="" stroke-width="0.4" stroke-linecap="round"/>
</g>
<g filter="url(#filter15_f_2_4)">
<path d="M111.253 105.135C110.24 99.0545 103.889 87.4345 86.5935 89.5966" stroke="url(#paint22_linear_2_4)" style="" stroke-width="0.5" stroke-linecap="round"/>
</g>
<g opacity="0.5" filter="url(#filter16_f_2_4)">
<path d="M152.984 101.749C154.656 97.7925 160.44 89.9803 170.202 90.3813C179.964 90.7823 187.698 97.5134 189.76 101.749" stroke="url(#paint23_linear_2_4)" style="" stroke-width="0.5" stroke-linecap="round"/>
</g>
<defs>
<filter id="filter0_i_2_4" x="5.23071" y="-0.25" width="246.369" height="256.25" filterUnits="userSpaceOnUse" color-interpolation-filters="sRGB">
<feFlood flood-opacity="0" result="BackgroundImageFix"/>
<feBlend mode="normal" in="SourceGraphic" in2="BackgroundImageFix" result="shape"/>
<feColorMatrix in="SourceAlpha" type="matrix" values="0 0 0 0 0 0 0 0 0 0 0 0 0 0 0 0 0 0 127 0" result="hardAlpha"/>
<feOffset dx="0.25" dy="-0.25"/>
<feGaussianBlur stdDeviation="0.25"/>
<feComposite in2="hardAlpha" operator="arithmetic" k2="-1" k3="1"/>
<feColorMatrix type="matrix" values="0 0 0 0 0.85098 0 0 0 0 0.447059 0 0 0 0 0.196078 0 0 0 1 0"/>
<feBlend mode="normal" in2="shape" result="effect1_innerShadow_2_4"/>
</filter>
<filter id="filter1_d_2_4" x="30.0116" y="30.0885" width="195.957" height="195.958" filterUnits="userSpaceOnUse" color-interpolation-filters="sRGB">
<feFlood flood-opacity="0" result="BackgroundImageFix"/>
<feColorMatrix in="SourceAlpha" type="matrix" values="0 0 0 0 0 0 0 0 0 0 0 0 0 0 0 0 0 0 127 0" result="hardAlpha"/>
<feOffset dx="-0.3" dy="0.3"/>
<feGaussianBlur stdDeviation="0.15"/>
<feComposite in2="hardAlpha" operator="out"/>
<feColorMatrix type="matrix" values="0 0 0 0 0.921569 0 0 0 0 0.47451 0 0 0 0 0.133333 0 0 0 1 0"/>
<feBlend mode="normal" in2="BackgroundImageFix" result="effect1_dropShadow_2_4"/>
<feBlend mode="normal" in="SourceGraphic" in2="effect1_dropShadow_2_4" result="shape"/>
</filter>
<filter id="filter2_f_2_4" x="40.7761" y="105.858" width="54.8264" height="54.8268" filterUnits="userSpaceOnUse" color-interpolation-filters="sRGB">
<feFlood flood-opacity="0" result="BackgroundImageFix"/>
<feBlend mode="normal" in="SourceGraphic" in2="BackgroundImageFix" result="shape"/>
<feGaussianBlur stdDeviation="0.25" result="effect1_foregroundBlur_2_4"/>
</filter>
<filter id="filter3_f_2_4" x="160.978" y="105.858" width="54.8267" height="54.8268" filterUnits="userSpaceOnUse" color-interpolation-filters="sRGB">
<feFlood flood-opacity="0" result="BackgroundImageFix"/>
<feBlend mode="normal" in="SourceGraphic" in2="BackgroundImageFix" result="shape"/>
<feGaussianBlur stdDeviation="0.25" result="effect1_foregroundBlur_2_4"/>
</filter>
<filter id="filter4_f_2_4" x="80.6467" y="144.511" width="95.2874" height="31.3462" filterUnits="userSpaceOnUse" color-interpolation-filters="sRGB">
<feFlood flood-opacity="0" result="BackgroundImageFix"/>
<feBlend mode="normal" in="SourceGraphic" in2="BackgroundImageFix" result="shape"/>
<feGaussianBlur stdDeviation="0.25" result="effect1_foregroundBlur_2_4"/>
</filter>
<filter id="filter5_i_2_4" x="83.4641" y="141.386" width="94.5383" height="30.5962" filterUnits="userSpaceOnUse" color-interpolation-filters="sRGB">
<feFlood flood-opacity="0" result="BackgroundImageFix"/>
<feBlend mode="normal" in="SourceGraphic" in2="BackgroundImageFix" result="shape"/>
<feColorMatrix in="SourceAlpha" type="matrix" values="0 0 0 0 0 0 0 0 0 0 0 0 0 0 0 0 0 0 127 0" result="hardAlpha"/>
<feOffset dx="0.25" dy="-0.25"/>
<feGaussianBlur stdDeviation="0.5"/>
<feComposite in2="hardAlpha" operator="arithmetic" k2="-1" k3="1"/>
<feColorMatrix type="matrix" values="0 0 0 0 0.203922 0 0 0 0 0.168627 0 0 0 0 0.180392 0 0 0 1 0"/>
<feBlend mode="normal" in2="shape" result="effect1_innerShadow_2_4"/>
</filter>
<filter id="filter6_i_2_4" x="51.6416" y="56.6449" width="36.438" height="36.4376" filterUnits="userSpaceOnUse" color-interpolation-filters="sRGB">
<feFlood flood-opacity="0" result="BackgroundImageFix"/>
<feBlend mode="normal" in="SourceGraphic" in2="BackgroundImageFix" result="shape"/>
<feColorMatrix in="SourceAlpha" type="matrix" values="0 0 0 0 0 0 0 0 0 0 0 0 0 0 0 0 0 0 127 0" result="hardAlpha"/>
<feOffset dx="0.25" dy="-0.25"/>
<feGaussianBlur stdDeviation="0.25"/>
<feComposite in2="hardAlpha" operator="arithmetic" k2="-1" k3="1"/>
<feColorMatrix type="matrix" values="0 0 0 0 0.239216 0 0 0 0 0.156863 0 0 0 0 0.172549 0 0 0 1 0"/>
<feBlend mode="normal" in2="shape" result="effect1_innerShadow_2_4"/>
</filter>
<filter id="filter7_f_2_4" x="171.492" y="58.6991" width="35.9473" height="35.9482" filterUnits="userSpaceOnUse" color-interpolation-filters="sRGB">
<feFlood flood-opacity="0" result="BackgroundImageFix"/>
<feBlend mode="normal" in="SourceGraphic" in2="BackgroundImageFix" result="shape"/>
<feGaussianBlur stdDeviation="0.25" result="effect1_foregroundBlur_2_4"/>
</filter>
<filter id="filter8_i_2_4" x="173.115" y="56.7449" width="36.3375" height="36.3376" filterUnits="userSpaceOnUse" color-interpolation-filters="sRGB">
<feFlood flood-opacity="0" result="BackgroundImageFix"/>
<feBlend mode="normal" in="SourceGraphic" in2="BackgroundImageFix" result="shape"/>
<feColorMatrix in="SourceAlpha" type="matrix" values="0 0 0 0 0 0 0 0 0 0 0 0 0 0 0 0 0 0 127 0" result="hardAlpha"/>
<feOffset dx="0.15" dy="-0.15"/>
<feGaussianBlur stdDeviation="0.25"/>
<feComposite in2="hardAlpha" operator="arithmetic" k2="-1" k3="1"/>
<feColorMatrix type="matrix" values="0 0 0 0 0.270588 0 0 0 0 0.196078 0 0 0 0 0.192157 0 0 0 1 0"/>
<feBlend mode="normal" in2="shape" result="effect1_innerShadow_2_4"/>
</filter>
<filter id="filter9_f_2_4" x="67.1908" y="86.3162" width="46.8205" height="25.5671" filterUnits="userSpaceOnUse" color-interpolation-filters="sRGB">
<feFlood flood-opacity="0" result="BackgroundImageFix"/>
<feBlend mode="normal" in="SourceGraphic" in2="BackgroundImageFix" result="shape"/>
<feGaussianBlur stdDeviation="0.2" result="effect1_foregroundBlur_2_4"/>
</filter>
<filter id="filter10_f_2_4" x="145.925" y="86.3162" width="46.82" height="25.5671" filterUnits="userSpaceOnUse" color-interpolation-filters="sRGB">
<feFlood flood-opacity="0" result="BackgroundImageFix"/>
<feBlend mode="normal" in="SourceGraphic" in2="BackgroundImageFix" result="shape"/>
<feGaussianBlur stdDeviation="0.2" result="effect1_foregroundBlur_2_4"/>
</filter>
<filter id="filter11_i_2_4" x="145.2" y="83.8412" width="50.4122" height="27.0649" filterUnits="userSpaceOnUse" color-interpolation-filters="sRGB">
<feFlood flood-opacity="0" result="BackgroundImageFix"/>
<feBlend mode="normal" in="SourceGraphic" in2="BackgroundImageFix" result="shape"/>
<feColorMatrix in="SourceAlpha" type="matrix" values="0 0 0 0 0 0 0 0 0 0 0 0 0 0 0 0 0 0 127 0" result="hardAlpha"/>
<feOffset dx="0.4" dy="-0.15"/>
<feGaussianBlur stdDeviation="0.25"/>
<feComposite in2="hardAlpha" operator="arithmetic" k2="-1" k3="1"/>
<feColorMatrix type="matrix" values="0 0 0 0 0.298039 0 0 0 0 0.196078 0 0 0 0 0.235294 0 0 0 1 0"/>
<feBlend mode="normal" in2="shape" result="effect1_innerShadow_2_4"/>
</filter>
<filter id="filter12_f_2_4" x="89.7013" y="147.771" width="81.5018" height="18.049" filterUnits="userSpaceOnUse" color-interpolation-filters="sRGB">
<feFlood flood-opacity="0" result="BackgroundImageFix"/>
<feBlend mode="normal" in="SourceGraphic" in2="BackgroundImageFix" result="shape"/>
<feGaussianBlur stdDeviation="0.3" result="effect1_foregroundBlur_2_4"/>
</filter>
<filter id="filter13_f_2_4" x="177.754" y="59.6846" width="28.1936" height="29.1872" filterUnits="userSpaceOnUse" color-interpolation-filters="sRGB">
<feFlood flood-opacity="0" result="BackgroundImageFix"/>
<feBlend mode="normal" in="SourceGraphic" in2="BackgroundImageFix" result="shape"/>
<feGaussianBlur stdDeviation="0.2" result="effect1_foregroundBlur_2_4"/>
</filter>
<filter id="filter14_f_2_4" x="56.0016" y="63.6624" width="16.6855" height="24.783" filterUnits="userSpaceOnUse" color-interpolation-filters="sRGB">
<feFlood flood-opacity="0" result="BackgroundImageFix"/>
<feBlend mode="normal" in="SourceGraphic" in2="BackgroundImageFix" result="shape"/>
<feGaussianBlur stdDeviation="0.2" result="effect1_foregroundBlur_2_4"/>
</filter>
<filter id="filter15_f_2_4" x="85.8435" y="88.582" width="26.1594" height="17.3026" filterUnits="userSpaceOnUse" color-interpolation-filters="sRGB">
<feFlood flood-opacity="0" result="BackgroundImageFix"/>
<feBlend mode="normal" in="SourceGraphic" in2="BackgroundImageFix" result="shape"/>
<feGaussianBlur stdDeviation="0.25" result="effect1_foregroundBlur_2_4"/>
</filter>
<filter id="filter16_f_2_4" x="152.234" y="89.6165" width="38.2759" height="12.8822" filterUnits="userSpaceOnUse" color-interpolation-filters="sRGB">
<feFlood flood-opacity="0" result="BackgroundImageFix"/>
<feBlend mode="normal" in="SourceGraphic" in2="BackgroundImageFix" result="shape"/>
<feGaussianBlur stdDeviation="0.25" result="effect1_foregroundBlur_2_4"/>
</filter>
<linearGradient id="paint0_linear_2_4" x1="204.154" y1="42.9888" x2="64.5866" y2="221.058" gradientUnits="userSpaceOnUse">
<stop stop-color="#FC8B23" style="stop-color:#FC8B23;stop-color:color(display-p3 0.9882 0.5451 0.1373);stop-opacity:1;"/>
<stop offset="1" stop-color="#E67639" style="stop-color:#E67639;stop-color:color(display-p3 0.9020 0.4627 0.2235);stop-opacity:1;"/>
</linearGradient>
<radialGradient id="paint1_radial_2_4" cx="0" cy="0" r="1" gradientUnits="userSpaceOnUse" gradientTransform="translate(151.789 11.8058) rotate(138.155) scale(34.3567 30.3133)">
<stop offset="0.300161" stop-color="#FFA13A" style="stop-color:#FFA13A;stop-color:color(display-p3 1.0000 0.6314 0.2275);stop-opacity:1;"/>
<stop offset="1" stop-color="#FFA13A" stop-opacity="0" style="stop-color:none;stop-opacity:0;"/>
</radialGradient>
<radialGradient id="paint2_radial_2_4" cx="0" cy="0" r="1" gradientUnits="userSpaceOnUse" gradientTransform="translate(62.4001 0.959793) rotate(67.8105) scale(54.6192 48.191)">
<stop offset="0.300161" stop-color="#FF942A" style="stop-color:#FF942A;stop-color:color(display-p3 1.0000 0.5804 0.1647);stop-opacity:1;"/>
<stop offset="1" stop-color="#FF942A" stop-opacity="0" style="stop-color:none;stop-opacity:0;"/>
</radialGradient>
<radialGradient id="paint3_radial_2_4" cx="0" cy="0" r="1" gradientUnits="userSpaceOnUse" gradientTransform="translate(209.089 51.9159) rotate(-164.745) scale(21.7774 30.1536)">
<stop offset="0.300161" stop-color="#FFA13D" style="stop-color:#FFA13D;stop-color:color(display-p3 1.0000 0.6314 0.2392);stop-opacity:1;"/>
<stop offset="1" stop-color="#FFA13D" stop-opacity="0" style="stop-color:none;stop-opacity:0;"/>
</radialGradient>
<radialGradient id="paint4_radial_2_4" cx="0" cy="0" r="1" gradientUnits="userSpaceOnUse" gradientTransform="translate(253.018 83.6221) rotate(154.195) scale(38.6123 28.5181)">
<stop offset="0.300161" stop-color="#FFA13D" style="stop-color:#FFA13D;stop-color:color(display-p3 1.0000 0.6314 0.2392);stop-opacity:1;"/>
<stop offset="1" stop-color="#FFA13D" stop-opacity="0" style="stop-color:none;stop-opacity:0;"/>
</radialGradient>
<radialGradient id="paint5_radial_2_4" cx="0" cy="0" r="1" gradientUnits="userSpaceOnUse" gradientTransform="translate(261.423 148.944) rotate(-173.379) scale(43.0713 24.2722)">
<stop offset="0.300161" stop-color="#FFA13D" style="stop-color:#FFA13D;stop-color:color(display-p3 1.0000 0.6314 0.2392);stop-opacity:1;"/>
<stop offset="1" stop-color="#FFA13D" stop-opacity="0" style="stop-color:none;stop-opacity:0;"/>
</radialGradient>
<radialGradient id="paint6_radial_2_4" cx="0" cy="0" r="1" gradientUnits="userSpaceOnUse" gradientTransform="translate(222.841 198.986) rotate(-43.9639) scale(39.0692 37.6386)">
<stop stop-color="#E0762A" style="stop-color:#E0762A;stop-color:color(display-p3 0.8784 0.4627 0.1647);stop-opacity:1;"/>
<stop offset="1" stop-color="#E0762A" stop-opacity="0" style="stop-color:none;stop-opacity:0;"/>
</radialGradient>
<radialGradient id="paint7_radial_2_4" cx="0" cy="0" r="1" gradientUnits="userSpaceOnUse" gradientTransform="translate(41.772 189.818) rotate(-127.747) scale(29.9524 28.8556)">
<stop stop-color="#E0762A" style="stop-color:#E0762A;stop-color:color(display-p3 0.8784 0.4627 0.1647);stop-opacity:1;"/>
<stop offset="1" stop-color="#E0762A" stop-opacity="0" style="stop-color:none;stop-opacity:0;"/>
</radialGradient>
<radialGradient id="paint8_radial_2_4" cx="0" cy="0" r="1" gradientUnits="userSpaceOnUse" gradientTransform="translate(0.897905 88.5883) rotate(25.2777) scale(30.4165 36.7627)">
<stop stop-color="#F0851D" style="stop-color:#F0851D;stop-color:color(display-p3 0.9412 0.5216 0.1137);stop-opacity:1;"/>
<stop offset="1" stop-color="#F0851D" stop-opacity="0" style="stop-color:none;stop-opacity:0;"/>
</radialGradient>
<radialGradient id="paint9_radial_2_4" cx="0" cy="0" r="1" gradientUnits="userSpaceOnUse" gradientTransform="translate(182.46 242.366) rotate(-142.487) scale(35.4625 33.4557)">
<stop offset="0.336586" stop-color="#E3745B" style="stop-color:#E3745B;stop-color:color(display-p3 0.8902 0.4549 0.3569);stop-opacity:1;"/>
<stop offset="1" stop-color="#E3745B" stop-opacity="0" style="stop-color:none;stop-opacity:0;"/>
</radialGradient>
<radialGradient id="paint10_radial_2_4" cx="0" cy="0" r="1" gradientUnits="userSpaceOnUse" gradientTransform="translate(183.721 71.1778) rotate(130.262) scale(159.046 162.07)">
<stop offset="0.17178" stop-color="#FFD13D" style="stop-color:#FFD13D;stop-color:color(display-p3 1.0000 0.8196 0.2392);stop-opacity:1;"/>
<stop offset="1" stop-color="#DCA21C" style="stop-color:#DCA21C;stop-color:color(display-p3 0.8627 0.6353 0.1098);stop-opacity:1;"/>
</radialGradient>
<radialGradient id="paint11_radial_2_4" cx="0" cy="0" r="1" gradientUnits="userSpaceOnUse" gradientTransform="translate(68.1459 133.232) scale(29.1941 29.1941)">
<stop offset="0.25" stop-color="#ED501F" style="stop-color:#ED501F;stop-color:color(display-p3 0.9294 0.3137 0.1216);stop-opacity:1;"/>
<stop offset="0.89541" stop-color="#F18A42" stop-opacity="0" style="stop-color:none;stop-opacity:0;"/>
</radialGradient>
<radialGradient id="paint12_radial_2_4" cx="0" cy="0" r="1" gradientUnits="userSpaceOnUse" gradientTransform="translate(188.347 133.232) scale(29.1941 29.1941)">
<stop offset="0.130208" stop-color="#FB6738" style="stop-color:#FB6738;stop-color:color(display-p3 0.9843 0.4039 0.2196);stop-opacity:1;"/>
<stop offset="0.89541" stop-color="#F18A42" stop-opacity="0" style="stop-color:none;stop-opacity:0;"/>
</radialGradient>
<linearGradient id="paint13_linear_2_4" x1="83.473" y1="156.766" x2="177.74" y2="156.766" gradientUnits="userSpaceOnUse">
<stop stop-color="#31243C" style="stop-color:#31243C;stop-color:color(display-p3 0.1922 0.1412 0.2353);stop-opacity:1;"/>
<stop offset="1" stop-color="#3F2950" style="stop-color:#3F2950;stop-color:color(display-p3 0.2471 0.1608 0.3137);stop-opacity:1;"/>
</linearGradient>
<linearGradient id="paint14_linear_2_4" x1="177.753" y1="145.384" x2="172.244" y2="150.498" gradientUnits="userSpaceOnUse">
<stop stop-color="#665C6D" style="stop-color:#665C6D;stop-color:color(display-p3 0.4000 0.3608 0.4275);stop-opacity:1;"/>
<stop offset="1" stop-color="#665C6D" stop-opacity="0" style="stop-color:none;stop-opacity:0;"/>
</linearGradient>
<radialGradient id="paint15_radial_2_4" cx="0" cy="0" r="1" gradientUnits="userSpaceOnUse" gradientTransform="translate(87.8296 60.284) rotate(127.543) scale(10.2131)">
<stop stop-color="#59525C" style="stop-color:#59525C;stop-color:color(display-p3 0.3490 0.3216 0.3608);stop-opacity:1;"/>
<stop offset="1" stop-color="#59525C" stop-opacity="0" style="stop-color:none;stop-opacity:0;"/>
</radialGradient>
<linearGradient id="paint16_linear_2_4" x1="66.9638" y1="97.4901" x2="117.001" y2="97.4901" gradientUnits="userSpaceOnUse">
<stop stop-color="#2E2931" style="stop-color:#2E2931;stop-color:color(display-p3 0.1804 0.1608 0.1922);stop-opacity:1;"/>
<stop offset="1" stop-color="#362A3F" style="stop-color:#362A3F;stop-color:color(display-p3 0.2118 0.1647 0.2471);stop-opacity:1;"/>
</linearGradient>
<linearGradient id="paint17_linear_2_4" x1="88.3716" y1="143.654" x2="130.452" y2="164.92" gradientUnits="userSpaceOnUse">
<stop stop-color="#4E4753" style="stop-color:#4E4753;stop-color:color(display-p3 0.3059 0.2784 0.3255);stop-opacity:1;"/>
<stop offset="1" stop-color="#4E4753" stop-opacity="0" style="stop-color:none;stop-opacity:0;"/>
</linearGradient>
<linearGradient id="paint18_linear_2_4" x1="175.876" y1="142.261" x2="124.042" y2="167.9" gradientUnits="userSpaceOnUse">
<stop offset="0.0897352" stop-color="#5E5468" style="stop-color:#5E5468;stop-color:color(display-p3 0.3686 0.3294 0.4078);stop-opacity:1;"/>
<stop offset="1" stop-color="#5E5468" stop-opacity="0" style="stop-color:none;stop-opacity:0;"/>
</linearGradient>
<linearGradient id="paint19_linear_2_4" x1="175.229" y1="59.148" x2="195.687" y2="72.2183" gradientUnits="userSpaceOnUse">
<stop stop-color="#60556A" style="stop-color:#60556A;stop-color:color(display-p3 0.3765 0.3333 0.4157);stop-opacity:1;"/>
<stop offset="1" stop-color="#60556A" stop-opacity="0" style="stop-color:none;stop-opacity:0;"/>
</linearGradient>
<linearGradient id="paint20_linear_2_4" x1="206.909" y1="84.5785" x2="189.293" y2="55.0281" gradientUnits="userSpaceOnUse">
<stop stop-color="#5D4F69" style="stop-color:#5D4F69;stop-color:color(display-p3 0.3647 0.3098 0.4118);stop-opacity:1;"/>
<stop offset="1" stop-color="#5D4F69" stop-opacity="0" style="stop-color:none;stop-opacity:0;"/>
</linearGradient>
<linearGradient id="paint21_linear_2_4" x1="58.7326" y1="90.9713" x2="59.639" y2="63.8746" gradientUnits="userSpaceOnUse">
<stop stop-color="#524D53" style="stop-color:#524D53;stop-color:color(display-p3 0.3216 0.3020 0.3255);stop-opacity:1;"/>
<stop offset="1" stop-color="#524D53" stop-opacity="0" style="stop-color:none;stop-opacity:0;"/>
</linearGradient>
<linearGradient id="paint22_linear_2_4" x1="104.835" y1="105.135" x2="82.9557" y2="101.77" gradientUnits="userSpaceOnUse">
<stop stop-color="#524D53" style="stop-color:#524D53;stop-color:color(display-p3 0.3216 0.3020 0.3255);stop-opacity:1;"/>
<stop offset="1" stop-color="#5C5463" stop-opacity="0" style="stop-color:none;stop-opacity:0;"/>
</linearGradient>
<linearGradient id="paint23_linear_2_4" x1="179.323" y1="103.587" x2="147.063" y2="98.9399" gradientUnits="userSpaceOnUse">
<stop stop-color="#61556C" style="stop-color:#61556C;stop-color:color(display-p3 0.3804 0.3333 0.4235);stop-opacity:1;"/>
<stop offset="1" stop-color="#554A5F" style="stop-color:#554A5F;stop-color:color(display-p3 0.3333 0.2902 0.3725);stop-opacity:1;"/>
</linearGradient>
</defs>
</svg>
